<svg xmlns="http://www.w3.org/2000/svg" xmlns:xlink="http://www.w3.org/1999/xlink" viewBox="0 0 1800 800"><defs><style>.cls-1{isolation:isolate;}.cls-2{fill:url(#linear-gradient);}.cls-3{fill:url(#linear-gradient-2);}.cls-4{fill:url(#linear-gradient-3);}.cls-5{fill:url(#linear-gradient-4);}.cls-6{fill:url(#linear-gradient-5);}.cls-7{fill:url(#linear-gradient-6);}.cls-8{fill:#3b221d;}.cls-9{fill:#f59180;}.cls-10{fill:#103b66;}.cls-11,.cls-15,.cls-18,.cls-19,.cls-20,.cls-21,.cls-26,.cls-29{opacity:0.49;mix-blend-mode:color-burn;}.cls-12{fill:url(#linear-gradient-7);}.cls-13{fill:url(#linear-gradient-8);}.cls-14{fill:#254a7f;}.cls-15{fill:url(#linear-gradient-9);}.cls-16{fill:#f9aa8f;}.cls-17{fill:#9092a0;}.cls-18{fill:url(#linear-gradient-10);}.cls-19{fill:url(#linear-gradient-11);}.cls-20{fill:url(#linear-gradient-12);}.cls-21{fill:url(#linear-gradient-13);}.cls-22{fill:url(#linear-gradient-14);}.cls-23{fill:#a85d33;}.cls-24{fill:url(#linear-gradient-15);}.cls-25{fill:url(#linear-gradient-16);}.cls-26{fill:url(#linear-gradient-17);}.cls-27{fill:#1b1c37;}.cls-28{fill:#343860;}.cls-29{fill:url(#linear-gradient-18);}.cls-30,.cls-31,.cls-39{fill:none;}.cls-31,.cls-39{stroke:#fff;stroke-miterlimit:10;stroke-width:2px;}.cls-32{fill:url(#linear-gradient-19);}.cls-33{fill:url(#linear-gradient-20);}.cls-34{fill:url(#linear-gradient-21);}.cls-35{fill:url(#linear-gradient-22);}.cls-36{fill:url(#linear-gradient-23);}.cls-37{fill:url(#linear-gradient-24);}.cls-38{opacity:0.43;}.cls-38,.cls-52{mix-blend-mode:overlay;}.cls-39{stroke-linecap:round;}.cls-40{fill:url(#linear-gradient-25);}.cls-41{fill:url(#linear-gradient-26);}.cls-42{fill:url(#linear-gradient-27);}.cls-43{fill:url(#linear-gradient-28);}.cls-44{fill:url(#linear-gradient-29);}.cls-45{fill:url(#linear-gradient-30);}.cls-46{fill:url(#linear-gradient-31);}.cls-47{fill:url(#linear-gradient-32);}.cls-48{fill:url(#linear-gradient-33);}.cls-49{fill:url(#linear-gradient-34);}.cls-50{fill:#d1d2db;}.cls-51{fill:#fff;}.cls-52{opacity:0.24;}.cls-53{fill:url(#linear-gradient-35);}.cls-54{fill:url(#linear-gradient-36);}.cls-55{fill:url(#linear-gradient-37);}.cls-56{fill:url(#linear-gradient-38);}.cls-57{fill:url(#linear-gradient-39);}.cls-58{fill:url(#linear-gradient-40);}.cls-59{fill:url(#linear-gradient-41);}.cls-60{fill:url(#linear-gradient-42);}</style><linearGradient id="linear-gradient" x1="900" y1="1408.73" x2="900" y2="-2422.16" gradientUnits="userSpaceOnUse"><stop offset="0.07" stop-color="#fff"/><stop offset="0.79" stop-color="#d1d3d4"/></linearGradient><linearGradient id="linear-gradient-2" x1="808.29" y1="197.37" x2="1882.91" y2="130.28" gradientUnits="userSpaceOnUse"><stop offset="0.03" stop-color="#fff"/><stop offset="0.79" stop-color="#d1d3d4"/></linearGradient><linearGradient id="linear-gradient-3" x1="900" y1="676.09" x2="900" y2="352.6" gradientUnits="userSpaceOnUse"><stop offset="0" stop-color="#a0e2d0"/><stop offset="0.34" stop-color="#39a9bb"/><stop offset="0.67" stop-color="#445dce"/><stop offset="1" stop-color="#243f7e"/></linearGradient><linearGradient id="linear-gradient-4" y1="611.63" y2="300.69" xlink:href="#linear-gradient-3"/><linearGradient id="linear-gradient-5" x1="753.19" y1="559.53" x2="872.08" y2="353.27" gradientUnits="userSpaceOnUse"><stop offset="0" stop-color="#a0e2d0"/><stop offset="0.04" stop-color="#39a9bb"/><stop offset="0.58" stop-color="#445dce"/><stop offset="1" stop-color="#243f7e"/></linearGradient><linearGradient id="linear-gradient-6" x1="485.91" y1="529.43" x2="485.91" y2="520.64" xlink:href="#linear-gradient-3"/><linearGradient id="linear-gradient-7" x1="947.24" y1="492.64" x2="924.68" y2="545.27" gradientUnits="userSpaceOnUse"><stop offset="0" stop-color="#fff" stop-opacity="0"/><stop offset="1"/></linearGradient><linearGradient id="linear-gradient-8" x1="926.55" y1="483.77" x2="903.99" y2="536.4" xlink:href="#linear-gradient-7"/><linearGradient id="linear-gradient-9" x1="866.53" y1="531.73" x2="885.87" y2="394.77" xlink:href="#linear-gradient-7"/><linearGradient id="linear-gradient-10" x1="924.03" y1="311.19" x2="889.11" y2="355.5" xlink:href="#linear-gradient-7"/><linearGradient id="linear-gradient-11" x1="855.96" y1="463.72" x2="820.15" y2="144.31" xlink:href="#linear-gradient-7"/><linearGradient id="linear-gradient-12" x1="828.68" y1="280.87" x2="884.13" y2="295.77" xlink:href="#linear-gradient-7"/><linearGradient id="linear-gradient-13" x1="846.82" y1="280.61" x2="852.56" y2="238.51" xlink:href="#linear-gradient-7"/><linearGradient id="linear-gradient-14" x1="799.44" y1="444.39" x2="799.44" y2="145.93" xlink:href="#linear-gradient"/><linearGradient id="linear-gradient-15" x1="888.93" y1="240.54" x2="871.16" y2="189.61" xlink:href="#linear-gradient-7"/><linearGradient id="linear-gradient-16" x1="866.94" y1="248.22" x2="849.17" y2="197.28" xlink:href="#linear-gradient-7"/><linearGradient id="linear-gradient-17" x1="879.6" y1="273.77" x2="879.18" y2="240.76" xlink:href="#linear-gradient-7"/><linearGradient id="linear-gradient-18" x1="777.64" y1="401.3" x2="839.68" y2="305.42" xlink:href="#linear-gradient-7"/><linearGradient id="linear-gradient-19" x1="662.69" y1="217.18" x2="662.69" y2="104.46" xlink:href="#linear-gradient"/><linearGradient id="linear-gradient-20" x1="708.92" y1="180.52" x2="623.64" y2="95.25" xlink:href="#linear-gradient"/><linearGradient id="linear-gradient-21" x1="662.69" y1="157.02" x2="662.69" y2="69.05" xlink:href="#linear-gradient"/><linearGradient id="linear-gradient-22" x1="1212.18" y1="689.48" x2="1212.18" y2="576.76" xlink:href="#linear-gradient"/><linearGradient id="linear-gradient-23" x1="1258.41" y1="652.82" x2="1173.13" y2="567.55" xlink:href="#linear-gradient"/><linearGradient id="linear-gradient-24" x1="1212.18" y1="629.32" x2="1212.18" y2="541.35" xlink:href="#linear-gradient"/><linearGradient id="linear-gradient-25" x1="612.31" y1="592.32" x2="612.31" y2="-20.04" gradientUnits="userSpaceOnUse"><stop offset="0" stop-color="#abcf9c"/><stop offset="0.17" stop-color="#84cf9c"/><stop offset="0.46" stop-color="#39ce9c"/><stop offset="1" stop-color="#007a75"/></linearGradient><linearGradient id="linear-gradient-26" x1="635.71" y1="652.44" x2="635.71" y2="227.7" xlink:href="#linear-gradient-25"/><linearGradient id="linear-gradient-27" x1="612.31" y1="572.24" x2="612.31" y2="341.83" xlink:href="#linear-gradient-25"/><linearGradient id="linear-gradient-28" x1="639.77" y1="626.67" x2="639.77" y2="366.27" xlink:href="#linear-gradient-25"/><linearGradient id="linear-gradient-29" x1="1187.69" y1="592.32" x2="1187.69" y2="-20.04" xlink:href="#linear-gradient-25"/><linearGradient id="linear-gradient-30" x1="903.37" y1="691.26" x2="1431.88" y2="233.65" xlink:href="#linear-gradient-25"/><linearGradient id="linear-gradient-31" x1="1187.69" y1="572.24" x2="1187.69" y2="341.83" xlink:href="#linear-gradient-25"/><linearGradient id="linear-gradient-32" x1="1160.23" y1="681.46" x2="1160.23" y2="370.93" xlink:href="#linear-gradient-25"/><linearGradient id="linear-gradient-33" x1="1179.85" y1="293.91" x2="1179.85" y2="-89.6" xlink:href="#linear-gradient"/><linearGradient id="linear-gradient-34" x1="1059.35" y1="267.46" x2="1231.51" y2="95.3" xlink:href="#linear-gradient"/><linearGradient id="linear-gradient-35" x1="795.23" y1="301.17" x2="795.23" y2="19.5" xlink:href="#linear-gradient"/><linearGradient id="linear-gradient-36" x1="915.85" y1="990.7" x2="915.85" y2="268.04" xlink:href="#linear-gradient"/><linearGradient id="linear-gradient-37" x1="596.34" y1="526.4" x2="596.34" y2="274.18" xlink:href="#linear-gradient-25"/><linearGradient id="linear-gradient-38" x1="596.34" y1="509.21" x2="596.34" y2="385.66" xlink:href="#linear-gradient-25"/><linearGradient id="linear-gradient-39" x1="674.32" y1="543.52" x2="674.32" y2="116.14" xlink:href="#linear-gradient-25"/><linearGradient id="linear-gradient-40" x1="674.32" y1="533.21" x2="674.32" y2="403.76" xlink:href="#linear-gradient-25"/><linearGradient id="linear-gradient-41" x1="1167.37" y1="500.98" x2="1167.37" y2="221.94" xlink:href="#linear-gradient-25"/><linearGradient id="linear-gradient-42" x1="1167.37" y1="529.99" x2="1167.37" y2="332.36" xlink:href="#linear-gradient-25"/></defs><title>VR guy floating</title><g class="cls-1"><g id="Layer_1" data-name="Layer 1"><circle class="cls-2" cx="900" cy="426.81" r="368.19"/><path class="cls-3" d="M1069.1,99.68,879.38,231.34,866.57,252.8h358A369.82,369.82,0,0,0,1069.1,99.68Z"/><path class="cls-4" d="M1315,365.91c0-21.87-185.8-39.6-415-39.6S485,344,485,365.91h0V523.59c0-21.87,185.8-39.6,415-39.6,216,0,393.51,15.75,413.18,35.88V369.63A5.42,5.42,0,0,0,1315,365.91Z"/><path class="cls-5" d="M1260.08,503.89a370.53,370.53,0,0,0-.79-157.81c-71.8-11.82-205.81-19.77-359.29-19.77s-287.49,8-359.29,19.77a370.52,370.52,0,0,0-.8,157.81C611.52,492,746,484,900,484S1188.49,492,1260.08,503.89Z"/><path class="cls-6" d="M778.21,374.69v24A119.28,119.28,0,0,1,739,487.07h0c43.17-1.74,90.05-2.79,139.2-3l17.94-84.22L848,326.61q-7.94.09-15.78.22Z"/><path class="cls-7" d="M485,523.59v3.72h1.82A5.42,5.42,0,0,1,485,523.59Z"/><polygon class="cls-8" points="876.91 610.59 896.18 642.59 895.94 612.54 890.8 605.43 876.91 610.59"/><path class="cls-9" d="M896.17,609.31l-.12,14.07s-14-13.41-3.48-19.89Z"/><path class="cls-10" d="M976.15,514.17c-6.55-21.93-61-85.63-61-85.63L877,479.73l52,56.19-39.05,69.56,6.73,7.06S982.7,536.1,976.15,514.17Z"/><g class="cls-11"><path class="cls-12" d="M928.18,537.38l-1,1.73h0A16.55,16.55,0,0,0,928.18,537.38Z"/><path class="cls-13" d="M895.2,499.37l33.7,36.44c2.52-6,6-19.63-3.28-38-12.7-25.07,0-55.54,0-55.54Z"/></g><path class="cls-9" d="M818.89,658.17,819,677s-19-17.7-5-26.59Z"/><path class="cls-8" d="M813.95,650.43l-14.52,9.27L823,696.62l-4.06-30.86S806.08,655.46,813.95,650.43Z"/><path class="cls-14" d="M818.89,658.17l-8.12-12.71L847.5,549a51.07,51.07,0,0,0,1.65-31.17c-31-117.74,23.5-149.15,23.5-149.15h0l42.53,59.88C934.33,522.55,818.89,658.17,818.89,658.17Z"/><path class="cls-15" d="M840.56,567.22c9.6-25.22,18.62-33.3,24.75-53.8S916,457.25,916,457.25l-76.3-11.69c-.66,19.37,1.77,43.18,9.43,72.26A51.07,51.07,0,0,1,847.5,549Z"/><path class="cls-16" d="M877.14,296.18s57.7,36.56,122.69-11l4.19,4.6s-58.23,80.51-142.87,37.07"/><path class="cls-17" d="M861.15,326.81c17.52,9,34.14,12.66,49.48,12.84a67.42,67.42,0,0,0,7.05-30.77c0-.09,0-.18,0-.28-24.38-3.08-40.54-12.44-40.54-12.44Z"/><path class="cls-18" d="M884.47,309.76l-2.15,25.6a98.71,98.71,0,0,0,65.55-2.78C899.68,332.83,884.47,309.76,884.47,309.76Z"/><path class="cls-16" d="M1000.87,280.47l-1.41,3.86s-.07,9.28,3.09,7.17,8.69-2.14,8.69-2.14Z"/><path class="cls-17" d="M840,290.43s.66,1.61-15.88,16.23c-13.4,11.84,28.48,75.23,12.44,131.24-5.69,19.85-28.43,6,5.62,18.4,51.76,18.91,74.07,8,82.37-10.88,11.59-26.35-28-139-45.57-148.25-11-5.76-30.32-10-33.78-28.28"/><path class="cls-19" d="M842.19,456.29c18.35,6.7,33,9.64,44.61,9.82C833.29,464,879,403.94,879,403.94l-21.32-5.55c1.29-36.26-15.37-64.19-15.37-64.19l-17.89-.69c7.39,26.49,22.68,67.61,12.15,104.38C830.89,457.74,808.15,443.86,842.19,456.29Z"/><path class="cls-16" d="M834.71,272.1s5.17,12.45,4.81,21.16c-.43,10.36,37,29.88,25.25-1.26-1.83-4.85-3.87-8.27,6.32-17.63,5.62-5.17-12.66-7.77-12.66-7.77"/><path class="cls-20" d="M834.71,272.1s5.17,12.45,4.81,21.16c-.14,3.43,3.87,7.86,8.87,11.13h0c-6.13-10.21,12.44-8.86,12.76-14.9.13-2.39,1.72-5.25,3.58-7.85a33.89,33.89,0,0,1,6.36-7.28l-20.74-5.89Z"/><path class="cls-16" d="M884.47,253.9c0-8.89-7.25-17.77-7.25-17.77h0a27.93,27.93,0,0,0-50.62,16.28c0,15.43,12.5,26.86,27.93,26.86,12.41,0,22.92-7,26.56-18.22A9.83,9.83,0,0,0,884.47,253.9Z"/><path class="cls-21" d="M848.39,268.88C851.65,260,874.32,253,874.32,253l-44.64-8.26L827.13,251s.34,4.38,1.54,11.83c4.17,9.89,14.17,16.46,25.86,16.46C854.53,279.28,845.13,277.78,848.39,268.88Z"/><path class="cls-22" d="M821.13,355.22l-29.52-16c-16,22.13-26,45.64,15.56,57.37C771.13,373.64,821.13,355.22,821.13,355.22Z"/><path class="cls-23" d="M845.4,254.49h0a2.4,2.4,0,0,1-3.09-1.78c-.5-2.3-1.68-5.2-4.39-4.94-4.44.42-7.93,5.59-7,10a12.29,12.29,0,0,0,4.34,6.83s3.46,2.17.34,6.92a1.15,1.15,0,0,1-1.87.06c-4.07-5.22-18.83-26.95,1-46.06,22.67-21.9,40-10.52,45.37-7.88s4,19.62-15.55,19.94c-15.64.25-17.4,10.62-17.48,14.72A2.38,2.38,0,0,1,845.4,254.49Z"/><g class="cls-11"><path class="cls-24" d="M880.95,218.23l1.55,4.23A8.15,8.15,0,0,0,880.95,218.23Z"/><path class="cls-25" d="M882.79,223.26l-.29-.8c0,1.75-1.17,3.49-5.28,4-9,1.11-27.77-4.13-36,7.14-5.51,7.53,4.25,14.8,4.82,18.83a2.81,2.81,0,0,0,1,1.55l.1,0s-2.1-16.05,17.42-16.37C878,237.34,882.86,229.16,882.79,223.26Z"/></g><path class="cls-26" d="M876.9,258c-6.65,0,1.3,1.89,4.14,3.16l0-.13a10,10,0,0,0,3.35-6.73C884.29,255.38,883.27,258,876.9,258Z"/><path class="cls-27" d="M884.27,251.86a1.63,1.63,0,0,0-1.64-1.36,13.06,13.06,0,0,0-4.08,1c-6.41,2.38-30.64,11.73-34.28-1.69-3.5-12.91,4.2-15.51,28.51-19.59,23.22-3.9,14.34,23.18,11.59,22.23Z"/><path class="cls-27" d="M847,240S833.4,244.61,825.9,256c0,0-1.13,2.87,2.09,6,0,0,9.95-10.89,24-13.16"/><path class="cls-27" d="M832,253.17s-.95,5.54,4,7.65,5.74-4.86,3.72-5.55a2.76,2.76,0,0,1-1.7-3Z"/><path class="cls-28" d="M886.59,249.77c2.85-6.54,4.46-22.65-13.81-19.58A166.1,166.1,0,0,0,855,233.85a9.76,9.76,0,0,0-4,2.18c-1.89,1.78-3.77,5-1.78,10.37,3.39,9.1,15.56,5.82,25.08,2.86S885.75,249.34,886.59,249.77Z"/><path class="cls-27" d="M1006.31,277.73l-2.05,10.74a1.55,1.55,0,0,0,.91,1.72l1.43.62a1.55,1.55,0,0,0,1.18,0h0a1.55,1.55,0,0,0,.95-1.75l-.43-2.1-1.11-2.66v-4.55"/><path class="cls-27" d="M1012.44,266.82c-5.42,0-9.81,6.89-9.81,15.38s4.39,15.38,9.81,15.38,9.81-6.89,9.81-15.38S1017.86,266.82,1012.44,266.82Zm0,25.35c-3,0-5.5-4.46-5.5-10s2.46-10,5.5-10,5.5,4.46,5.5,10S1015.48,292.17,1012.44,292.17Z"/><path class="cls-16" d="M1011.22,275l-1.35.2a4.77,4.77,0,0,0-3.18,1.94l-.15.21a3.2,3.2,0,0,0-.55,2.39l1.12,6.75v.33a2.82,2.82,0,0,0,2.82,2.9h0a2.82,2.82,0,0,0,2.4-1.35l.73-1.2a2.82,2.82,0,0,0,.41-1.47v-8.75A2,2,0,0,0,1011.22,275Z"/><path class="cls-16" d="M828.81,305.07s-18.41,8.3-36.86,33.67c-17.05,23.44-27.73,48.53,22.27,59.6s51,7.36,51,7.36l2.3-5.79s-64.42-17-59.76-29.58c6.65-17.94,34.27-21.17,35.85-38.3S841.4,305.16,828.81,305.07Z"/><path class="cls-29" d="M821.13,355.22l-29.52-16c-16,22.13-26,45.64,15.56,57.37C771.13,373.64,821.13,355.22,821.13,355.22Z"/><path class="cls-17" d="M845.21,332.86c1.57-17.13-2.39-30.05-15-30.14,0,0-16.3,7.73-38.28,36-.33.43-.59.9-.88,1.35,7.58,6.54,18,12,30.06,15.12C831.11,348.21,844.21,343.76,845.21,332.86Z"/><path class="cls-30" d="M867.58,392.37a5.67,5.67,0,0,1,.89-.53,11.43,11.43,0,0,0-3.81,2.16A15.29,15.29,0,0,0,867.58,392.37Z"/><path class="cls-30" d="M859.72,412.22c1.48.93,3.5.69,5.58-.45a25.7,25.7,0,0,1-7.47-2.63A4.48,4.48,0,0,0,859.72,412.22Z"/><path class="cls-16" d="M850.71,395.25l-8.38,8.28a30.71,30.71,0,0,1,8.77,2.41,20.91,20.91,0,0,1,2.78-10.31A25.39,25.39,0,0,1,850.71,395.25Z"/><path class="cls-27" d="M864.66,394a11.43,11.43,0,0,1,3.81-2.16c3.53-1.7,7,1.53,9,4l.05.06c.12-4.16-1.32-7.74-4.27-9.6-5.38-3.38-13.75.25-18.68,8.1-.24.39-.46.78-.68,1.17A24.09,24.09,0,0,0,864.66,394Z"/><path class="cls-27" d="M865.31,411.77c-2.09,1.14-4.11,1.38-5.58.45a4.48,4.48,0,0,1-1.88-3.08c-2.13-1-4.35-2.19-6.74-3.19.07,3.84,1.5,7.12,4.28,8.86,4.2,2.64,10.21,1,15-3.58A10.19,10.19,0,0,1,865.31,411.77Z"/><path class="cls-27" d="M860.57,398.74a19.71,19.71,0,0,1,4.1-4.73,24.09,24.09,0,0,1-10.79,1.62,20.91,20.91,0,0,0-2.78,10.31c2.39,1,4.62,2.17,6.74,3.19C857.3,406.38,858.24,402.45,860.57,398.74Z"/><path class="cls-16" d="M880.26,398.81a36.4,36.4,0,0,1-2.75-2.86l-.05-.06c-2-2.52-5.46-5.74-9-4a5.67,5.67,0,0,0-.89.53,15.29,15.29,0,0,1-2.91,1.64,19.71,19.71,0,0,0-4.1,4.73c-2.33,3.71-3.26,7.63-2.73,10.4a25.7,25.7,0,0,0,7.47,2.63,10.19,10.19,0,0,0,5.06-.54,13.49,13.49,0,0,0,4.3-2.73C881.55,402.26,881.24,399.78,880.26,398.81Z"/><path class="cls-16" d="M1008.2,272.5v0a.76.76,0,0,0-1.2-.34l-3.6,3a10.36,10.36,0,0,0-3.25,4.78L998,286.46l2.27,2.51,4-3.43A5.13,5.13,0,0,0,1006,282l.21-3.18a3.12,3.12,0,0,1,.45-1.41l1.16-1.92A3.57,3.57,0,0,0,1008.2,272.5Z"/><polygon class="cls-31" points="795.03 276.28 795.03 247.74 770.31 233.47 745.6 247.74 745.6 276.28 770.31 290.55 795.03 276.28"/><polyline class="cls-31" points="745.6 247.74 770.31 262.01 795.03 247.74"/><line class="cls-31" x1="770.31" y1="262.01" x2="770.31" y2="290.55"/><polygon class="cls-31" points="827.17 556.23 827.17 527.69 802.46 513.42 777.75 527.69 777.75 556.23 802.46 570.5 827.17 556.23"/><polyline class="cls-31" points="777.75 527.69 802.46 541.96 827.17 527.69"/><line class="cls-31" x1="802.46" y1="541.96" x2="802.46" y2="570.49"/><polygon class="cls-32" points="695.03 159.8 695.03 122.46 662.69 103.79 630.36 122.46 630.36 159.8 662.69 178.47 695.03 159.8"/><polygon class="cls-33" points="695.03 159.8 695.03 122.46 662.69 103.79 662.69 178.47 695.03 159.8"/><polygon class="cls-34" points="630.36 122.46 662.69 141.13 695.03 122.46 662.69 103.79 630.36 122.46"/><polygon class="cls-35" points="1244.52 632.1 1244.52 594.76 1212.18 576.1 1179.85 594.76 1179.85 632.1 1212.18 650.77 1244.52 632.1"/><polygon class="cls-36" points="1244.52 632.1 1244.52 594.76 1212.18 576.1 1212.18 650.77 1244.52 632.1"/><polygon class="cls-37" points="1179.85 594.76 1212.18 613.43 1244.52 594.76 1212.18 576.1 1179.85 594.76"/><g class="cls-38"><path class="cls-39" d="M769.16,406.84a8.58,8.58,0,0,1,8.58-8.58"/><path class="cls-39" d="M786.33,406.84a8.58,8.58,0,0,1-8.58,8.58"/></g><path class="cls-31" d="M1008.38,543.4a8.58,8.58,0,0,1-8.58-8.58"/><path class="cls-31" d="M1008.38,526.24a8.58,8.58,0,0,1,8.58,8.58"/><path class="cls-31" d="M908.74,277.73a8.58,8.58,0,0,1,8.58-8.58"/><path class="cls-31" d="M925.9,277.73a8.58,8.58,0,0,1-8.58,8.58"/><path class="cls-40" d="M739.62,402.45C590.06,396.46,485,382.36,485,365.91V523.59c0,16.45,105.06,30.55,254.62,36.54Z"/><path class="cls-41" d="M531.81,426.81a367.74,367.74,0,0,0,19.4,118.24c45.18,6.67,110.8,12,188.41,15.07V402.45c-88-3.52-160.54-9.85-205.39-17.82A372,372,0,0,0,531.81,426.81Z"/><path class="cls-42" d="M485.07,524.27l0,.17a4.37,4.37,0,0,0,.2.68h0a5.3,5.3,0,0,0,.33.67l.1.17a6.87,6.87,0,0,0,.47.67v0c.18.22.38.44.59.66l.16.16c.23.22.47.44.73.67l0,0c.26.21.54.43.84.64l.23.16c.31.22.64.44,1,.66l0,0c.34.21.7.42,1.08.63l.29.16c.4.22.81.44,1.25.65l.06,0,1.32.62.34.15,1.49.64.08,0,1.55.61.39.15,1.74.64.1,0,1.77.6.44.14,2,.63.11,0,2,.59.48.14,2.22.62.15,0,2.21.58.51.13,2.48.61.12,0,2.47.58.55.13,2.71.6.14,0,2.7.57.56.12,2.94.59.19,0,2.88.56.6.11,3.18.59.15,0,3.15.56.59.1,3.41.58.18,0,3.35.54.59.09,3.65.57.15,0,3.59.54.62.09,3.85.55.17,0,3.79.52.6.08,4.08.54.19,0,4,.51.57.07,4.31.53.16,0,4.24.5.57.07,4.52.52.15,0,4.45.49.57.06,4.72.5.17,0,4.69.48.46,0,5,.49h.06l5,.47.47,0,5.17.48h.11l5.17.46.37,0,5.42.47h0l5.39.45.4,0q5.54.45,11.25.88l.28,0q5.76.43,11.68.85l.22,0q5.94.42,12,.81h.21q6.11.4,12.37.77h.2q6.33.38,12.81.74h0q22.82,1.26,47.39,2.25V487.05C590.06,493,485,507.14,485,523.59h0A3.91,3.91,0,0,0,485.07,524.27Z"/><path class="cls-43" d="M551.21,545.05l.5.08.62.09,3.85.55.17,0,3.79.52.6.08,4.08.54.19,0,4,.51.57.07,4.31.53.16,0,4.24.5.57.07,4.52.52.15,0,4.45.49.57.06,4.72.5.17,0,4.69.48.46,0,5,.49h.06l5,.47.47,0,5.17.48h.11l5.17.46.37,0,5.42.47h0l5.39.45.4,0q5.54.45,11.25.88l.28,0q5.76.44,11.68.85l.22,0q5.94.42,12,.81h.21q6.11.4,12.37.77h.2q6.33.38,12.81.74h0q22.82,1.26,47.39,2.25V487.05c-84.34,3.38-154.53,9.33-199.71,16.84A365.5,365.5,0,0,0,551.21,545.05Z"/><path class="cls-44" d="M1060.38,402.45V560.12c149.56-6,254.62-20.09,254.62-36.54V365.91C1315,382.36,1209.94,396.46,1060.38,402.45Z"/><path class="cls-45" d="M1060.38,560.12c77.61-3.11,143.23-8.4,188.41-15.07a367.75,367.75,0,0,0,19.4-118.24,372,372,0,0,0-2.42-42.18c-44.85,8-117.42,14.29-205.39,17.82Z"/><path class="cls-46" d="M1060.38,487.05v73.07q24.53-1,47.39-2.25h0q6.47-.36,12.8-.74h.21q6.26-.38,12.36-.77h.23q6.09-.4,12-.81l.22,0q5.92-.42,11.68-.85l.29,0q5.7-.43,11.24-.88l.4,0,5.38-.45h0l5.41-.46.37,0,5.16-.46h.12l5.16-.48.48,0,5-.47h.06l5-.49.47,0,4.68-.48.18,0,4.72-.5.57-.06,4.44-.49.15,0,4.52-.52.57-.07,4.23-.5.17,0,4.31-.53.58-.07,4-.51.19,0,4.07-.54.6-.08,3.79-.52.18,0,3.85-.55.63-.09,3.57-.53.16,0,3.64-.57.59-.09,3.35-.54.19,0,3.4-.57.6-.1,3.14-.55.15,0,3.17-.58.6-.11,2.86-.55.2,0,2.93-.59.57-.12,2.69-.57.14,0,2.7-.6.56-.13,2.46-.58.13,0,2.47-.61.51-.13,2.21-.58.15,0,2.22-.62.48-.14,2-.59.11,0,2-.63.44-.14,1.77-.6.11,0,1.74-.64.39-.15,1.55-.61.08,0,1.49-.64.34-.15,1.32-.62.06,0c.44-.22.85-.43,1.24-.65l.29-.16c.37-.21.74-.42,1.07-.63l0,0c.35-.22.68-.44,1-.66l.23-.16c.3-.21.58-.43.84-.64l0,0c.27-.22.5-.44.73-.67l.16-.17c.21-.22.41-.44.59-.66v0a6.85,6.85,0,0,0,.47-.67l.1-.17a5.3,5.3,0,0,0,.33-.67h0a4.36,4.36,0,0,0,.2-.68l0-.17a3.91,3.91,0,0,0,.07-.68h0C1315,507.14,1209.94,493,1060.38,487.05Z"/><path class="cls-47" d="M1060.38,487.05v73.07q24.53-1,47.39-2.25h0q6.47-.36,12.8-.74h.21q6.26-.38,12.36-.77h.23q6.09-.4,12-.81l.22,0q5.92-.42,11.68-.85l.29,0q5.7-.43,11.24-.88l.4,0,5.38-.45h0l5.41-.46.37,0,5.16-.46h.12l5.16-.48.48,0,5-.47h.06l5-.49.47,0,4.68-.48.18,0,4.72-.5.57-.06,4.44-.49.15,0,4.52-.52.57-.07,4.23-.5.17,0,4.31-.53.58-.07,4-.51.19,0,4.07-.54.6-.08,3.79-.52.18,0,3.85-.55.63-.09.5-.07a365.48,365.48,0,0,0,11.29-41.17C1214.91,496.38,1144.72,490.43,1060.38,487.05Z"/><circle class="cls-48" cx="1179.85" cy="146.96" r="88.34"/><path class="cls-49" d="M1211,229.64a370.12,370.12,0,0,0-113.82-113.82A88.36,88.36,0,0,0,1211,229.64Z"/><ellipse class="cls-50" cx="880.76" cy="347.55" rx="15.99" ry="25.76" transform="translate(-63.52 277.78) rotate(-17.31)"/><ellipse class="cls-17" cx="874.64" cy="342.9" rx="2.11" ry="3.4" transform="translate(-62.41 275.75) rotate(-17.31)"/><ellipse class="cls-17" cx="887.27" cy="340.02" rx="1.84" ry="2.97" transform="translate(-60.98 279.38) rotate(-17.31)"/><path class="cls-51" d="M620.74,238.88a35.11,35.11,0,0,0-4.25.26,15.83,15.83,0,0,1-11.08-2.6,45.49,45.49,0,0,0-64.25,12.29A7.28,7.28,0,0,1,535,252h0a21.78,21.78,0,0,0-21.78,21.78H655.59A34.86,34.86,0,0,0,620.74,238.88Z"/><path class="cls-51" d="M1120.77,216.17a19.27,19.27,0,0,1,2.33.14,8.69,8.69,0,0,0,6.08-1.43,25,25,0,0,1,35.28,6.75,4,4,0,0,0,3.4,1.72h0a12,12,0,0,1,12,12h-78.21A19.14,19.14,0,0,1,1120.77,216.17Z"/><path class="cls-51" d="M699.17,287.84a14.2,14.2,0,0,0-1.72.1,6.41,6.41,0,0,1-4.49-1.05,18.42,18.42,0,0,0-26,5,3,3,0,0,1-2.51,1.27h0a8.82,8.82,0,0,0-8.82,8.82h57.69A14.12,14.12,0,0,0,699.17,287.84Z"/><path class="cls-51" d="M1110.5,257.11a14.22,14.22,0,0,0-1.72.1,6.41,6.41,0,0,1-4.49-1.05,18.42,18.42,0,0,0-26,5,3,3,0,0,1-2.51,1.27h0a8.82,8.82,0,0,0-8.82,8.82h57.69A14.12,14.12,0,0,0,1110.5,257.11Z"/><g class="cls-52"><circle class="cls-31" cx="950.3" cy="377.07" r="0.84"/><line class="cls-39" x1="959.32" y1="377.07" x2="992.87" y2="377.07"/><line class="cls-39" x1="1003.15" y1="377.07" x2="1036.7" y2="377.07"/><circle class="cls-31" cx="1035.86" cy="388.18" r="0.84"/><line class="cls-39" x1="1026.84" y1="388.18" x2="993.29" y2="388.18"/><line class="cls-39" x1="983.02" y1="388.18" x2="949.46" y2="388.18"/><circle class="cls-31" cx="950.3" cy="399.72" r="0.84"/><line class="cls-39" x1="959.32" y1="399.72" x2="992.87" y2="399.72"/><line class="cls-39" x1="1003.15" y1="399.72" x2="1036.7" y2="399.72"/><circle class="cls-31" cx="1035.86" cy="410.83" r="0.84"/><line class="cls-39" x1="1026.84" y1="410.83" x2="993.29" y2="410.83"/><line class="cls-39" x1="983.02" y1="410.83" x2="949.46" y2="410.83"/><circle class="cls-31" cx="950.3" cy="422.37" r="0.84"/><line class="cls-39" x1="959.32" y1="422.37" x2="992.87" y2="422.37"/><line class="cls-39" x1="1003.15" y1="422.37" x2="1036.7" y2="422.37"/><circle class="cls-31" cx="1035.86" cy="433.48" r="0.84"/><line class="cls-39" x1="1026.84" y1="433.48" x2="993.29" y2="433.48"/><line class="cls-39" x1="983.02" y1="433.48" x2="949.46" y2="433.48"/></g><circle class="cls-53" cx="795.23" cy="145.69" r="29.87"/><path class="cls-54" d="M885.34,751.6l-23.41-23.41a15.78,15.78,0,0,0-22.32,0L833.79,734a9.19,9.19,0,0,1-13,0L754.47,667.7a25.87,25.87,0,0,0-36.59,0l-47.18,47.18A368.16,368.16,0,0,0,1161,686.5c-27.74-27.56-62.62-61-81.86-79.32a20.36,20.36,0,0,0-28.44.34L906.62,751.6A15,15,0,0,1,885.34,751.6Z"/><ellipse class="cls-55" cx="596.34" cy="463.02" rx="17.9" ry="27.57"/><ellipse class="cls-56" cx="596.34" cy="463.02" rx="6.09" ry="9.37"/><path class="cls-57" d="M657.86,517.51c10.14.67,20.94,1.26,32.29,1.76a5.69,5.69,0,0,0,5.94-5.68V446.13a5.68,5.68,0,0,0-5.44-5.68c-11.26-.49-22-1.07-32-1.73a5.67,5.67,0,0,0-6,5.67v67.45A5.68,5.68,0,0,0,657.86,517.51Z"/><path class="cls-58" d="M652.56,491.79v20a5.68,5.68,0,0,0,5.3,5.67c10.14.67,20.94,1.26,32.29,1.76a5.69,5.69,0,0,0,5.94-5.68v-24.5C681,489.91,666.43,490.81,652.56,491.79Z"/><path class="cls-59" d="M1159.71,436.64l-34.31,65.22a6.74,6.74,0,0,0,6.43,9.86l72-5a6.74,6.74,0,0,0,5.25-10.3l-37.7-60.21A6.74,6.74,0,0,0,1159.71,436.64Z"/><path class="cls-60" d="M1125.4,501.86a6.74,6.74,0,0,0,6.43,9.86l72-5a6.74,6.74,0,0,0,5.67-9.51c-23.1-2.47-49.38-4.65-78.24-6.51Z"/></g></g></svg>